# xmcd
#
# Track frame offsets: 
#        150
#        22707
#        46342
#        68740
#        86070
#        107862
#        128250
#        149982
#        170940
#        189784
#        210955
#        234475
#        256240
#
# Disc length: 3694 seconds
#
# Revision: 6
# Processed by: cddbd v1.5.2PL0 Copyright (c) Steve Scherf et al.
# Submitted via: ExactAudioCopy v1.3
#
DISCID=ac0e6c0d
DTITLE=知念里奈 - Passage ～Best Collection～
DYEAR=2000
DGENRE=JPop
TTITLE0=DO-DO FOR ME
TTITLE1=precious・delicious
TTITLE2=PINCH ～Love Me Deeper～
TTITLE3=Break out Emotion
TTITLE4=Wing
TTITLE5=Be yourself
TTITLE6=YES
TTITLE7=GOD BLESS THE WORLD
TTITLE8=Be proud
TTITLE9=IN YOUR EYES
TTITLE10=Baby Love
TTITLE11=My Wish (Acoustic Version)
TTITLE12=again
EXTD=YEAR: 2000 ID3G: 13
EXTT0=
EXTT1=
EXTT2=
EXTT3=
EXTT4=
EXTT5=
EXTT6=
EXTT7=
EXTT8=
EXTT9=
EXTT10=
EXTT11=
EXTT12=
PLAYORDER=
